<svg width="51" height="40" viewBox="0 0 51 40" fill="none" xmlns="http://www.w3.org/2000/svg">
<rect width="51" height="40" fill="#FB2E86"/>
<path d="M35.7099 28.2894L31.9999 24.6094C33.44 22.8138 34.1374 20.5347 33.9487 18.2407C33.76 15.9467 32.6996 13.8122 30.9854 12.2761C29.2713 10.7399 27.0337 9.91893 24.7328 9.98189C22.4319 10.0448 20.2426 10.987 18.615 12.6146C16.9875 14.2421 16.0453 16.4315 15.9824 18.7323C15.9194 21.0332 16.7404 23.2708 18.2765 24.9849C19.8127 26.6991 21.9472 27.7595 24.2412 27.9482C26.5352 28.1369 28.8143 27.4395 30.6099 25.9994L34.2899 29.6794C34.3829 29.7731 34.4935 29.8475 34.6153 29.8983C34.7372 29.9491 34.8679 29.9752 34.9999 29.9752C35.1319 29.9752 35.2626 29.9491 35.3845 29.8983C35.5063 29.8475 35.6169 29.7731 35.7099 29.6794C35.8901 29.493 35.9909 29.2438 35.9909 28.9844C35.9909 28.7251 35.8901 28.4759 35.7099 28.2894ZM24.9999 25.9994C23.6154 25.9994 22.2621 25.5889 21.1109 24.8197C19.9598 24.0505 19.0626 22.9573 18.5327 21.6782C18.0029 20.3991 17.8643 18.9917 18.1344 17.6338C18.4045 16.2759 19.0712 15.0286 20.0502 14.0497C21.0291 13.0707 22.2764 12.404 23.6343 12.1339C24.9921 11.8638 26.3996 12.0024 27.6787 12.5323C28.9578 13.0621 30.051 13.9593 30.8202 15.1104C31.5894 16.2616 31.9999 17.6149 31.9999 18.9994C31.9999 20.8559 31.2624 22.6364 29.9497 23.9492C28.6369 25.2619 26.8564 25.9994 24.9999 25.9994Z" fill="white"/>
</svg>
