<svg width="37" height="36" viewBox="0 0 37 36" fill="none" xmlns="http://www.w3.org/2000/svg">
<g filter="url(#filter0_d_316_1536)">
<path fill-rule="evenodd" clip-rule="evenodd" d="M5.01189 4.6582C4.4596 4.6582 4.01189 5.10592 4.01189 5.6582C4.01189 6.21049 4.4596 6.6582 5.01189 6.6582H8.1922L9.02384 10.8133C9.02827 10.8417 9.0339 10.8698 9.04068 10.8974L10.711 19.243L10.7112 19.2439C10.8485 19.9341 11.2241 20.5541 11.7724 20.9955C12.3181 21.4348 13.0003 21.6692 13.7005 21.6582H23.4032C24.1035 21.6692 24.7857 21.4348 25.3314 20.9955C25.8799 20.554 26.2556 19.9336 26.3927 19.243L26.3928 19.243L26.3942 19.2355L27.9942 10.8455C28.05 10.5528 27.9724 10.2504 27.7824 10.0208C27.5924 9.79113 27.3099 9.6582 27.0119 9.6582H10.8323L9.99244 5.46195C9.8989 4.99459 9.48851 4.6582 9.01189 4.6582H5.01189ZM12.6724 18.8519L11.2326 11.6582H25.8032L24.4304 18.8566C24.3842 19.0855 24.2592 19.2911 24.0773 19.4375C23.8945 19.5847 23.6657 19.6629 23.431 19.6584L23.4119 19.6582H13.6919L13.6727 19.6584C13.4381 19.6629 13.2093 19.5847 13.0265 19.4375C12.8437 19.2904 12.7184 19.0836 12.6727 18.8534L12.6724 18.8519ZM11.0119 25.6582C11.0119 24.5536 11.9073 23.6582 13.0119 23.6582C14.1165 23.6582 15.0119 24.5536 15.0119 25.6582C15.0119 26.7628 14.1165 27.6582 13.0119 27.6582C11.9073 27.6582 11.0119 26.7628 11.0119 25.6582ZM22.0119 25.6582C22.0119 24.5536 22.9073 23.6582 24.0119 23.6582C25.1165 23.6582 26.0119 24.5536 26.0119 25.6582C26.0119 26.7628 25.1165 27.6582 24.0119 27.6582C22.9073 27.6582 22.0119 26.7628 22.0119 25.6582Z" fill="black"/>
<rect x="16.5119" y="1.1582" width="15" height="15" rx="7.5" fill="#FB2448"/>
<path d="M21.0609 12.6582H27.0438V11.3372H23.2427V11.2775L24.747 9.74769C26.443 8.11985 26.9117 7.32724 26.9117 6.34286C26.9117 4.88121 25.7228 3.81161 23.9671 3.81161C22.237 3.81161 21.0098 4.88548 21.0098 6.54315H22.514C22.514 5.65252 23.0765 5.09428 23.9458 5.09428C24.7768 5.09428 25.3947 5.60138 25.3947 6.42383C25.3947 7.15252 24.9515 7.67241 24.0907 8.54599L21.0609 11.5162V12.6582Z" fill="white"/>
<rect x="16.5119" y="1.1582" width="15" height="15" rx="7.5" stroke="white"/>
</g>
<defs>
<filter id="filter0_d_316_1536" x="0.0118866" y="0.658203" width="36" height="36" filterUnits="userSpaceOnUse" color-interpolation-filters="sRGB">
<feFlood flood-opacity="0" result="BackgroundImageFix"/>
<feColorMatrix in="SourceAlpha" type="matrix" values="0 0 0 0 0 0 0 0 0 0 0 0 0 0 0 0 0 0 127 0" result="hardAlpha"/>
<feOffset dy="4"/>
<feGaussianBlur stdDeviation="2"/>
<feComposite in2="hardAlpha" operator="out"/>
<feColorMatrix type="matrix" values="0 0 0 0 0 0 0 0 0 0 0 0 0 0 0 0 0 0 0.25 0"/>
<feBlend mode="normal" in2="BackgroundImageFix" result="effect1_dropShadow_316_1536"/>
<feBlend mode="normal" in="SourceGraphic" in2="effect1_dropShadow_316_1536" result="shape"/>
</filter>
</defs>
</svg>
